<?xml version="1.0" standalone="no"?>
<!DOCTYPE svg PUBLIC "-//W3C//DTD SVG 20010904//EN"
 "http://www.w3.org/TR/2001/REC-SVG-20010904/DTD/svg10.dtd">
<svg version="1.0" xmlns="http://www.w3.org/2000/svg"
 width="260.000000pt" height="260.000000pt" viewBox="0 0 260.000000 260.000000"
 preserveAspectRatio="xMidYMid meet">
<metadata>
Created by potrace 1.11, written by Peter Selinger 2001-2013
</metadata>
<g transform="translate(0.000000,260.000000) scale(0.100000,-0.100000)"
fill="#000000" stroke="none">
<path d="M0 2569 c0 -28 1 -29 23 -15 17 11 34 13 77 5 30 -5 70 -12 88 -15
22 -3 32 -10 32 -23 0 -14 -10 -19 -48 -24 -27 -3 -75 -16 -108 -29 l-59 -24
-3 -72 c-5 -120 64 -305 82 -219 3 12 8 63 11 112 8 133 25 197 45 165 8 -13
4 -213 -5 -271 -6 -39 21 -47 185 -52 172 -6 200 -14 200 -57 0 -47 -49 -63
-175 -55 -143 9 -235 11 -235 5 0 -13 49 -83 50 -70 0 22 190 16 207 -7 8 -11
21 -14 41 -10 29 6 30 5 35 -39 6 -59 16 -68 65 -59 30 5 39 10 35 21 -3 8 0
20 6 28 6 7 12 59 15 115 2 56 7 105 11 109 3 4 17 -5 30 -20 26 -30 36 -33
63 -19 9 5 25 12 35 15 9 3 21 14 25 24 10 25 46 72 111 142 53 59 148 129
228 169 28 14 45 30 49 46 3 14 10 25 15 25 5 0 9 9 9 20 0 12 9 24 23 29 27
10 42 28 51 58 l7 23 -610 -1 -611 0 0 -30z m998 -31 c22 -22 12 -29 -35 -26
-50 3 -61 18 -21 30 35 9 43 9 56 -4z m-521 -75 l0 -78 -6 65 c-6 55 -5 90 3
90 1 0 2 -35 3 -77z m346 71 c7 -8 -12 -28 -35 -37 -22 -8 -33 10 -18 28 13
15 42 20 53 9z m7 -57 c0 -8 -3 -17 -7 -20 -9 -9 -34 13 -27 24 8 14 34 11 34
-4z m-592 -44 c-3 -55 -21 -65 -26 -15 -4 39 3 62 18 62 7 0 10 -18 8 -47z
m497 -59 c33 -21 23 -34 -26 -34 -31 0 -39 4 -39 18 0 36 26 42 65 16z m-150
-44 c3 -9 3 -25 -1 -34 -4 -10 0 -22 8 -29 11 -10 12 -24 2 -87 -7 -48 -12
-62 -13 -40 -2 53 -25 121 -46 136 -10 8 -29 14 -42 14 -16 0 -23 6 -23 20 0
23 15 27 23 6 4 -9 15 -12 32 -8 18 3 24 9 21 19 -4 8 -4 19 -1 23 8 13 33 1
40 -20z m-210 0 c3 -5 1 -10 -4 -10 -6 0 -11 5 -11 10 0 6 2 10 4 10 3 0 8 -4
11 -10z"/>
<path d="M1240 2590 c0 -13 11 -13 30 0 12 8 11 10 -7 10 -13 0 -23 -4 -23
-10z"/>
<path d="M1464 2591 c5 -8 56 -3 56 5 0 2 -14 4 -31 4 -16 0 -28 -4 -25 -9z"/>
<path d="M1633 2589 c11 -7 23 -7 35 0 14 9 11 10 -18 10 -29 0 -32 -1 -17
-10z"/>
<path d="M1934 2574 c4 -15 10 -40 13 -58 9 -43 37 -90 56 -94 21 -4 12 28
-32 116 -33 65 -48 80 -37 36z"/>
<path d="M1980 2592 c0 -5 7 -17 15 -28 8 -10 15 -27 15 -37 0 -17 19 -69 40
-107 4 -8 18 -15 30 -14 12 0 37 -13 57 -30 19 -17 40 -32 46 -32 7 -1 18 -2
24 -3 7 0 24 -19 38 -41 14 -23 30 -38 35 -35 5 3 15 -3 22 -15 7 -11 21 -20
30 -20 11 0 18 -8 18 -20 0 -32 29 -70 48 -63 25 9 62 45 57 54 -6 9 42 6 51
-3 9 -10 -7 -98 -17 -92 -5 3 -9 1 -9 -5 0 -6 -6 -8 -14 -5 -18 7 -26 -48 -11
-70 13 -17 9 -63 -6 -72 -4 -2 -3 -16 3 -29 16 -36 26 -22 27 42 0 60 15 89
32 63 5 -8 7 -24 3 -35 -3 -11 -8 -41 -11 -68 -3 -26 -10 -50 -14 -53 -16 -10
-9 -23 13 -26 16 -2 24 -12 28 -31 l5 -28 13 30 c7 17 22 33 33 36 17 6 19 16
19 105 0 68 -4 100 -12 102 -10 4 -10 13 0 44 9 25 12 82 10 164 l-3 125 -75
1 c-41 1 -94 -2 -117 -6 -54 -9 -76 9 -48 40 16 18 26 19 99 14 45 -4 95 -7
111 -8 l30 -1 3 83 3 82 -311 0 c-170 0 -310 -4 -310 -8z"/>
<path d="M1802 2570 c0 -14 2 -19 5 -12 2 6 2 18 0 25 -3 6 -5 1 -5 -13z"/>
<path d="M2132 2183 c-36 -7 -15 -23 30 -23 29 0 49 -7 65 -22 13 -12 26 -18
30 -14 10 10 -48 58 -64 52 -7 -3 -15 -1 -18 4 -4 6 -9 9 -13 9 -4 -1 -17 -4
-30 -6z"/>
<path d="M2398 2111 c-16 -15 -28 -31 -28 -36 0 -5 5 -4 12 3 7 7 20 12 30 12
18 0 42 33 31 44 -10 9 -16 6 -45 -23z"/>
<path d="M2140 2105 c0 -2 5 -16 12 -30 9 -19 16 -24 32 -19 12 3 25 10 30 14
14 13 -2 29 -24 23 -11 -3 -20 0 -20 6 0 6 -7 11 -15 11 -8 0 -15 -2 -15 -5z"/>
<path d="M236 1873 c-13 -13 -5 -33 14 -33 11 0 20 3 20 6 0 11 -28 33 -34 27z"/>
<path d="M420 1836 c0 -9 5 -16 10 -16 6 0 10 4 10 9 0 6 -4 13 -10 16 -5 3
-10 -1 -10 -9z"/>
<path d="M658 1837 c-10 -8 -18 -20 -18 -27 0 -7 -9 -28 -21 -46 -11 -18 -22
-55 -25 -81 -6 -64 -14 -103 -22 -103 -21 0 -72 43 -78 65 -7 28 -48 45 -67
26 -6 -6 -22 -11 -36 -11 -28 0 -91 -21 -91 -30 0 -26 32 -40 109 -50 47 -5
88 -15 92 -21 13 -22 77 -3 105 30 19 23 34 31 59 31 22 0 38 6 44 17 8 16 12
16 36 3 25 -13 28 -13 45 10 10 14 20 34 23 46 6 35 -21 108 -48 127 -34 24
-86 31 -107 14z m52 -133 c0 -2 -15 -4 -32 -4 -23 0 -29 3 -19 9 12 8 51 4 51
-5z"/>
<path d="M2212 1808 c-14 -14 -16 -28 -3 -28 9 0 24 30 18 36 -2 2 -9 -2 -15
-8z"/>
<path d="M966 1759 c-45 -27 -59 -64 -60 -150 -1 -68 1 -78 22 -93 22 -17 25
-17 42 -1 12 11 20 13 25 6 3 -6 -1 -14 -9 -17 -9 -3 -16 -10 -16 -15 0 -12
62 -75 87 -88 26 -13 153 -15 153 -2 0 15 86 24 117 13 19 -6 36 -6 53 1 l25
11 -27 4 c-33 4 -34 9 -10 35 16 19 16 20 -1 14 -9 -4 -30 -1 -45 5 l-27 11
32 8 32 9 -23 25 c-13 14 -40 32 -60 40 -38 16 -43 23 -49 65 -3 15 -12 26
-23 28 -10 2 -24 9 -29 17 -6 7 -34 23 -62 35 -29 12 -58 28 -64 36 -6 8 -15
11 -21 8 -5 -3 -14 -1 -21 4 -8 6 -22 3 -41 -9z m179 -228 c3 -10 23 -25 45
-34 69 -27 65 -64 -6 -72 -31 -4 -34 -3 -14 4 27 9 21 14 -35 26 -25 5 -85 55
-85 71 0 2 14 4 30 4 20 0 30 5 30 15 0 19 28 8 35 -14z"/>
<path d="M2522 1726 c-12 -27 -1 -43 21 -29 6 4 22 6 35 4 15 -1 22 3 22 13 0
10 -9 16 -23 16 -13 0 -28 5 -33 10 -7 7 -14 3 -22 -14z"/>
<path d="M2390 1705 c0 -8 5 -15 10 -15 6 0 10 7 10 15 0 8 -4 15 -10 15 -5 0
-10 -7 -10 -15z"/>
<path d="M2360 1690 c0 -5 5 -10 11 -10 5 0 7 5 4 10 -3 6 -8 10 -11 10 -2 0
-4 -4 -4 -10z"/>
<path d="M658 1572 c-35 -16 -54 -45 -42 -64 8 -12 44 -10 44 3 0 7 11 22 25
35 24 22 33 45 18 43 -5 0 -25 -8 -45 -17z"/>
<path d="M2511 1574 c0 -11 3 -14 6 -6 3 7 2 16 -1 19 -3 4 -6 -2 -5 -13z"/>
<path d="M2506 1542 c-4 -7 -11 -10 -16 -7 -4 3 -6 -5 -3 -16 5 -19 3 -21 -20
-17 -15 3 -27 1 -27 -3 0 -5 9 -9 19 -9 11 0 25 -2 33 -5 26 -9 41 11 31 41
-6 18 -12 24 -17 16z"/>
<path d="M855 1520 c-3 -5 1 -10 9 -10 9 0 16 5 16 10 0 6 -4 10 -9 10 -6 0
-13 -4 -16 -10z"/>
<path d="M2275 1480 c-3 -5 -2 -10 4 -10 5 0 13 5 16 10 3 6 2 10 -4 10 -5 0
-13 -4 -16 -10z"/>
<path d="M1985 1350 c-3 -5 -2 -10 4 -10 5 0 13 5 16 10 3 6 2 10 -4 10 -5 0
-13 -4 -16 -10z"/>
<path d="M1858 1307 c-20 -9 -25 -16 -19 -26 8 -12 14 -12 40 -2 17 7 36 19
42 27 9 11 7 14 -12 14 -13 -1 -36 -6 -51 -13z"/>
<path d="M2056 1300 c-69 -15 -84 -23 -114 -55 -26 -28 -32 -42 -27 -58 13
-39 5 -109 -16 -138 -23 -33 -23 -35 -3 -43 9 -4 24 0 33 8 9 8 40 17 70 19
43 4 59 11 87 38 36 35 41 57 23 108 -8 23 -17 31 -35 31 -33 0 -30 18 4 26
15 4 32 11 39 16 23 18 32 -2 29 -66 -2 -53 -9 -73 -35 -115 -18 -28 -48 -60
-67 -72 -28 -17 -45 -39 -30 -39 24 0 80 39 115 80 24 28 54 56 68 61 13 5 21
13 18 19 -3 5 2 24 11 42 10 18 18 52 19 74 2 36 -2 44 -26 58 -40 24 -74 25
-163 6z m-79 -202 c-3 -7 -5 -2 -5 12 0 14 2 19 5 13 2 -7 2 -19 0 -25z"/>
<path d="M2303 1309 c-24 -9 -31 -29 -10 -29 19 0 40 16 36 28 -3 6 -13 6 -26
1z"/>
<path d="M486 1283 c-11 -48 -19 -385 -11 -459 7 -66 8 -68 20 -40 13 31 9 66
-7 66 -15 0 -6 206 10 222 9 9 12 8 12 -7 0 -13 9 -3 23 24 31 62 80 113 101
105 12 -5 15 -14 11 -33 -8 -41 8 -87 31 -83 10 2 21 8 24 12 9 14 93 40 128
40 25 0 42 8 63 31 33 35 30 54 -6 37 -21 -9 -30 -7 -60 16 -56 43 -140 76
-193 76 -69 0 -92 -9 -92 -34 -1 -17 -5 -14 -24 17 l-23 38 -7 -28z"/>
<path d="M2337 1272 c-19 -20 -23 -37 -7 -27 10 6 33 45 27 45 -2 0 -11 -8
-20 -18z"/>
<path d="M1404 1185 c5 -18 2 -25 -8 -25 -8 0 -18 5 -21 10 -8 13 -25 13 -25
1 0 -5 7 -11 15 -13 15 -3 -16 -49 -81 -121 -16 -19 -23 -35 -19 -47 5 -15 0
-21 -21 -26 -42 -11 -59 6 -61 61 -1 34 -6 53 -19 62 -22 16 -51 17 -56 1 -2
-6 -13 -12 -25 -13 -11 0 -32 -9 -46 -18 -15 -9 -31 -17 -38 -17 -12 0 -3 -79
12 -94 5 -6 9 -18 9 -28 0 -14 6 -16 33 -11 17 3 39 10 48 14 16 8 49 -16 49
-35 0 -4 10 -16 23 -26 19 -16 20 -21 9 -37 -6 -10 -17 -29 -24 -43 -24 -51
-35 -58 -82 -49 -24 4 -65 6 -92 4 -27 -2 -54 1 -61 6 -30 26 -29 0 2 -50 34
-54 42 -101 18 -101 -7 0 -13 5 -13 10 0 7 -7 7 -20 0 -11 -6 -25 -8 -30 -5
-5 3 -24 0 -42 -8 -69 -31 -100 -36 -180 -30 -62 5 -86 11 -101 26 -15 15 -19
16 -14 4 10 -26 -43 -14 -59 14 l-13 24 -1 -23 c0 -45 31 -89 100 -143 66 -52
69 -55 64 -89 -7 -43 -9 -199 -4 -258 2 -25 9 -46 17 -49 7 -3 13 -11 13 -18
0 -6 8 -19 18 -28 17 -15 68 -17 521 -17 l503 0 43 28 c37 23 43 31 40 55 -2
24 2 31 26 39 31 11 39 28 14 28 -22 0 -18 20 8 49 13 15 30 42 37 61 7 19 22
48 33 63 15 22 22 25 33 16 11 -9 11 -15 3 -25 -9 -11 -7 -14 10 -14 15 0 21
5 19 17 -2 12 7 21 28 28 17 5 41 17 53 25 22 15 22 18 11 60 -14 56 -59 171
-72 187 -14 17 26 103 48 103 12 0 15 6 10 20 -3 11 -9 28 -12 38 -3 10 6 33
20 55 14 21 26 42 26 47 0 5 5 12 12 16 7 4 8 3 4 -4 -4 -7 -1 -12 8 -12 20 0
20 -14 1 -30 -11 -9 -12 -17 -5 -30 8 -15 6 -20 -9 -25 -24 -7 -36 -36 -19
-46 15 -10 61 30 54 46 -2 6 5 17 15 23 14 9 19 23 18 50 0 20 2 49 6 65 6 23
5 26 -9 21 -12 -4 -15 -2 -10 9 3 8 0 18 -5 22 -6 3 -8 11 -5 17 14 23 -36
-14 -53 -39 -28 -41 -114 -123 -148 -140 -16 -9 -34 -22 -38 -29 -12 -21 -42
-17 -76 12 -24 19 -31 34 -31 60 0 37 -2 37 82 39 32 0 60 4 64 8 11 11 -21
35 -51 39 -22 2 -31 10 -37 33 -9 38 -39 58 -70 46 -30 -11 -48 -4 -48 19 0
10 -5 22 -10 25 -6 4 -8 11 -4 16 10 17 -18 65 -48 82 -16 9 -26 21 -23 27 3
5 0 10 -8 10 -8 0 -17 -6 -20 -14 -8 -21 -86 -30 -107 -11 -22 20 -33 19 -55
-5 -20 -23 -37 -26 -34 -7 3 24 -1 37 -12 37 -7 0 -9 -10 -5 -25z m242 -152
c3 -10 12 -31 20 -46 22 -43 18 -75 -8 -79 -13 -2 -22 -7 -21 -13 3 -20 -28
-27 -46 -11 -23 21 -104 21 -121 1 -10 -12 -10 -18 0 -30 10 -12 9 -15 -4 -16
-9 -1 -20 -3 -26 -4 -5 -1 -13 -3 -17 -4 -5 -1 3 -6 15 -12 21 -8 28 -32 9
-30 -4 1 -16 1 -27 1 -11 0 -20 6 -20 13 0 7 -9 18 -20 25 l-21 13 21 29 c35
49 37 103 2 68 -6 -6 -15 -8 -19 -4 -4 4 0 12 10 17 12 7 16 17 12 30 -8 24
10 25 27 1 19 -26 58 -26 58 0 0 16 5 19 25 16 19 -4 25 -1 25 13 0 13 10 20
38 24 20 4 44 8 52 10 8 1 19 3 23 4 4 0 10 -7 13 -16z m-359 -55 c-3 -8 -6
-5 -6 6 -1 11 2 17 5 13 3 -3 4 -12 1 -19z m423 -48 c0 -5 -4 -10 -10 -10 -5
0 -10 5 -10 10 0 6 5 10 10 10 6 0 10 -4 10 -10z m207 -547 c-35 -60 -59 -57
-31 4 27 58 37 69 44 47 4 -11 -2 -32 -13 -51z m-150 -305 c-3 -8 -6 -5 -6 6
-1 11 2 17 5 13 3 -3 4 -12 1 -19z"/>
<path d="M2286 1173 c-3 -10 -9 -24 -12 -32 -4 -8 -2 -12 7 -9 7 2 16 16 20
31 8 30 -5 38 -15 10z"/>
<path d="M615 1040 c-3 -5 -1 -10 4 -10 6 0 11 5 11 10 0 6 -2 10 -4 10 -3 0
-8 -4 -11 -10z"/>
<path d="M548 1002 c-27 -17 -39 -49 -31 -83 5 -18 33 -28 33 -11 0 5 6 16 13
26 13 17 15 17 42 -8 15 -14 36 -26 46 -26 11 0 19 -7 19 -15 0 -19 -17 -19
-50 0 -44 25 -57 19 -63 -27 -3 -24 -2 -47 4 -53 5 -5 9 -17 9 -26 0 -35 157
-35 183 0 32 44 105 64 157 44 24 -10 60 -6 60 6 -1 11 -44 56 -75 76 -16 12
-55 29 -85 40 -30 10 -71 27 -90 38 -19 10 -51 20 -72 21 -20 1 -40 5 -44 9
-11 10 -26 7 -56 -11z m179 -98 c-3 -3 -12 -4 -19 -1 -8 3 -5 6 6 6 11 1 17
-2 13 -5z"/>
<path d="M2237 963 c-13 -13 -7 -33 11 -33 11 0 18 7 18 20 0 20 -16 27 -29
13z"/>
<path d="M338 93 c-18 -6 -43 -12 -55 -12 -12 -1 -24 -5 -27 -10 -4 -5 21 -7
56 -5 49 3 58 2 40 -6 -13 -5 -20 -14 -17 -20 10 -16 33 -12 56 11 12 12 36
25 55 31 19 5 34 12 34 16 0 11 -107 8 -142 -5z"/>
<path d="M2415 80 c-3 -5 1 -10 9 -10 9 0 16 5 16 10 0 6 -4 10 -9 10 -6 0
-13 -4 -16 -10z"/>
<path d="M195 40 c-23 -26 -8 -26 25 0 18 14 21 20 9 20 -9 0 -24 -9 -34 -20z"/>
<path d="M2360 10 c0 -5 9 -10 21 -10 11 0 17 4 14 10 -8 13 -35 13 -35 0z"/>
</g>
</svg>
